<?xml version="1.0" encoding="utf-8"?><svg xmlns="http://www.w3.org/2000/svg" xmlns:xlink="http://www.w3.org/1999/xlink"><symbol viewBox="0 0 24 24" id="attach" xmlns="http://www.w3.org/2000/svg"><g clip-path="url(#aa)"><path fill-rule="evenodd" clip-rule="evenodd" d="M18.43 3.935a4.625 4.625 0 0 0-6.54 0l-6.342 6.341a1 1 0 0 1-1.414-1.414l6.342-6.341a6.625 6.625 0 1 1 9.369 9.369l-8.531 8.53a4.75 4.75 0 1 1-6.718-6.717l.004-.004 6.44-6.37.003-.003c1.098-1.096 2.882-1.179 4.029-.032a2.875 2.875 0 0 1 0 4.065l-4.508 4.508a1 1 0 0 1-1.414-1.414l4.508-4.508a.875.875 0 0 0 0-1.237c-.318-.318-.837-.332-1.203.034l-.004.004-6.44 6.371-.002.002a2.75 2.75 0 0 0 3.89 3.887l8.531-8.53a4.625 4.625 0 0 0 0-6.541Z"/></g><defs><clipPath id="aa"><path d="M0 0h24v24H0z"/></clipPath></defs></symbol><symbol viewBox="0 0 40 40" id="chat" xmlns="http://www.w3.org/2000/svg"><path fill-rule="evenodd" clip-rule="evenodd" d="M36.539 17.611a12.92 12.92 0 0 1-1.634 4.645c.063.356.095.716.095 1.077 0 1.255-.364 2.456-1.037 3.547-.337.544-.423 1.182-.456 1.604-.038.483-.026 1.012.009 1.52.039.57.109 1.168.189 1.732-.65-.19-1.356-.38-2.029-.532a14.5 14.5 0 0 0-1.65-.288c-.453-.046-1.107-.082-1.692.107a13.56 13.56 0 0 1-4.168.643c-1.763 0-3.382-.313-4.802-.856-.341.015-.685.023-1.031.023a22.06 22.06 0 0 1-5.748-.752C15.213 33.121 19.546 35 24.166 35c1.805 0 3.537-.277 5.134-.786h.015c.041-.002.155-.004.368.018.334.035.764.112 1.26.224.987.222 2.096.551 2.961.825 1.834.583 3.61-1.018 3.283-2.878-.141-.801-.288-1.778-.345-2.625a7.402 7.402 0 0 1-.012-1.032c.008-.106.019-.173.026-.208.937-1.553 1.477-3.322 1.477-5.205 0-2.122-.66-4.06-1.794-5.722Z"/><path fill-rule="evenodd" clip-rule="evenodd" d="M9.328 9.497c-2.247 1.718-3.495 3.973-3.495 6.336 0 1.178.306 2.313.882 3.369.22.402.281.816.304 1.097.024.306.012.62-.015.915-.053.589-.18 1.256-.333 1.913a38.712 38.712 0 0 1-.639 2.359c.88-.32 1.843-.648 2.755-.914a17.944 17.944 0 0 1 2.145-.507c.57-.09 1.4-.179 2.112.068 1.6.554 3.391.867 5.289.867 3.578 0 6.757-1.111 9.005-2.83 2.246-1.719 3.495-3.974 3.495-6.337 0-2.363-1.249-4.618-3.495-6.336-2.248-1.72-5.427-2.83-9.005-2.83-3.579 0-6.757 1.11-9.005 2.83ZM7.303 6.849c2.88-2.202 6.784-3.516 11.03-3.516 4.245 0 8.15 1.314 11.03 3.516 2.88 2.203 4.803 5.364 4.803 8.984s-1.923 6.781-4.804 8.984c-2.879 2.202-6.784 3.516-11.03 3.516-2.238 0-4.376-.365-6.317-1.029-.002.006-.16-.01-.563.054-.464.073-1.057.217-1.731.414-1.343.392-2.85.946-3.998 1.393-1.99.774-4.016-1.137-3.346-3.172.355-1.079.774-2.442 1.047-3.619.138-.593.227-1.091.26-1.46a2.9 2.9 0 0 0 .014-.285A10.293 10.293 0 0 1 2.5 15.833c0-3.62 1.923-6.781 4.804-8.984Zm-3.61 13.689.002.014a.092.092 0 0 1-.002-.014Z"/></symbol><symbol viewBox="0 0 24 24" id="cross" xmlns="http://www.w3.org/2000/svg"><path fill-rule="evenodd" clip-rule="evenodd" d="M4.293 4.293a1 1 0 0 1 1.414 0L12 10.586l6.293-6.293a1 1 0 1 1 1.414 1.414L13.414 12l6.293 6.293a1 1 0 0 1-1.414 1.414L12 13.414l-6.293 6.293a1 1 0 0 1-1.414-1.414L10.586 12 4.293 5.707a1 1 0 0 1 0-1.414Z"/></symbol><symbol viewBox="0 0 32 32" id="facebook" xmlns="http://www.w3.org/2000/svg"><path d="m23.418 1.34-3.703-.006c-4.16 0-6.849 2.833-6.849 7.219v3.328H9.143a.59.59 0 0 0-.582.599v4.822c0 .33.26.598.582.598h3.723v12.17c0 .33.26.597.582.597h4.858a.59.59 0 0 0 .582-.598V17.9h4.354a.59.59 0 0 0 .582-.598l.002-4.822a.607.607 0 0 0-.17-.423.574.574 0 0 0-.413-.176h-4.355V9.06c0-1.356.315-2.045 2.035-2.045h2.494A.59.59 0 0 0 24 6.415V1.938a.59.59 0 0 0-.581-.598Z"/></symbol><symbol viewBox="0 0 16 16" id="heart" xmlns="http://www.w3.org/2000/svg"><path fill-rule="evenodd" clip-rule="evenodd" d="M8 13.271C4.932 11.525 3.222 9.79 2.395 8.284c-.846-1.542-.772-2.84-.303-3.761.966-1.894 3.71-2.5 5.383-.384L8 4.8l.523-.661c1.673-2.116 4.418-1.51 5.383.384.47.921.544 2.22-.303 3.76-.826 1.507-2.537 3.242-5.603 4.989ZM8 2.737C5.645.502 2.175 1.426.904 3.917.208 5.285.2 7.052 1.228 8.925c1.019 1.857 3.052 3.817 6.449 5.694l.322.179.323-.179c3.397-1.877 5.43-3.837 6.45-5.694 1.028-1.873 1.018-3.64.321-5.008C13.823 1.426 10.353.502 8 2.737Z"/></symbol><symbol viewBox="0 0 48 48" id="ic-brain" xmlns="http://www.w3.org/2000/svg"><g clip-path="url(#fa)"><path d="M48 24a9.728 9.728 0 0 0-4.779-8.39 6.39 6.39 0 0 0-.397-4.205 6.38 6.38 0 0 0-3.19-3.181 8.775 8.775 0 0 0-2.426-5.48A8.779 8.779 0 0 0 30.797 0 8.88 8.88 0 0 0 24 3.177 8.88 8.88 0 0 0 17.203 0a8.779 8.779 0 0 0-6.411 2.745 8.774 8.774 0 0 0-2.427 5.479 6.38 6.38 0 0 0-3.19 3.181 6.39 6.39 0 0 0-.396 4.205A9.728 9.728 0 0 0 0 24a9.728 9.728 0 0 0 4.779 8.39 6.39 6.39 0 0 0 .397 4.205 6.38 6.38 0 0 0 3.19 3.181 8.775 8.775 0 0 0 2.426 5.48A8.779 8.779 0 0 0 17.203 48 8.88 8.88 0 0 0 24 44.823 8.88 8.88 0 0 0 30.797 48a8.779 8.779 0 0 0 6.411-2.745 8.775 8.775 0 0 0 2.427-5.479 6.38 6.38 0 0 0 3.19-3.181 6.39 6.39 0 0 0 .396-4.205A9.728 9.728 0 0 0 48 24Zm-6.801 6.281H34.5V26.24h4.969c.776 0 1.406-.63 1.406-1.406v-4.114a1.406 1.406 0 0 0-2.813 0v2.707H34.5V20.99a2.816 2.816 0 0 0-2.813-2.813h-2.812a1.406 1.406 0 0 0 0 2.813h2.813v9.292h-6.282V27.75a1.406 1.406 0 0 0-2.813 0v2.531a2.816 2.816 0 0 0 2.813 2.813h15.09a3.59 3.59 0 0 1-.23 2.332 3.577 3.577 0 0 1-2.374 1.991 1.406 1.406 0 0 0-1.056 1.43 6.002 6.002 0 0 1-1.664 4.467 5.992 5.992 0 0 1-4.375 1.873 6.062 6.062 0 0 1-5.39-3.305v-2.976h2.53a1.406 1.406 0 0 0 0-2.812h-2.53a2.816 2.816 0 0 0-2.813 2.812v2.976a6.061 6.061 0 0 1-5.39 3.306 5.991 5.991 0 0 1-4.376-1.874 5.994 5.994 0 0 1-1.574-3.087h3.371a2.816 2.816 0 0 0 2.813-2.813v-1.738h1.218a1.406 1.406 0 1 0 0-2.813h-1.218v-1.738a2.816 2.816 0 0 0-2.813-2.813h-2.438a1.406 1.406 0 0 0 0 2.813h2.438v6.29s-4.513.003-4.517.002a3.577 3.577 0 0 1-2.374-1.99 3.58 3.58 0 0 1 .049-3.102 1.407 1.407 0 0 0-.714-1.925A6.925 6.925 0 0 1 2.813 24a6.925 6.925 0 0 1 4.256-6.4c.041-.018.081-.038.12-.059h2.186v4.219a1.406 1.406 0 1 0 2.812 0v-4.219h5.25v6.844a1.406 1.406 0 1 0 2.813 0v-2.531h1.37a1.406 1.406 0 1 0 0-2.813h-1.37v-1.5a2.816 2.816 0 0 0-2.813-2.812h-.843v-3.76a1.406 1.406 0 1 0-2.813 0v3.76H7.465a3.595 3.595 0 0 1 .27-2.155 3.578 3.578 0 0 1 2.373-1.991 1.406 1.406 0 0 0 1.056-1.43 6.002 6.002 0 0 1 1.664-4.467 5.992 5.992 0 0 1 4.375-1.873 6.06 6.06 0 0 1 5.485 3.498v4.752a2.816 2.816 0 0 0 2.812 2.812H33a1.406 1.406 0 0 0 0-2.813h-.281V9.095a1.406 1.406 0 0 0-2.813 0v1.969H25.5s-.003-5.063-.007-5.11a6.063 6.063 0 0 1 5.304-3.14c1.67 0 3.224.665 4.375 1.873a6.002 6.002 0 0 1 1.665 4.468 1.406 1.406 0 0 0 1.055 1.429c1.054.27 1.92.996 2.374 1.99a3.581 3.581 0 0 1-.049 3.102 1.406 1.406 0 0 0 .714 1.924A6.925 6.925 0 0 1 45.188 24a6.924 6.924 0 0 1-3.99 6.281Z"/></g><defs><clipPath id="fa"><path d="M0 0h48v48H0z"/></clipPath></defs></symbol><symbol viewBox="0 0 48 48" id="ic-budget" xmlns="http://www.w3.org/2000/svg"><g clip-path="url(#ga)"><path d="M29.558 11.341A8.23 8.23 0 0 0 32.25 5.25V1.5A1.5 1.5 0 0 0 30.276.077l-2.748.916c-2.275.758-4.781.758-7.056 0L17.724.077A1.5 1.5 0 0 0 15.75 1.5v3.75a8.23 8.23 0 0 0 2.692 6.091C10.808 13.715 5.25 20.846 5.25 29.25v12.563A6.194 6.194 0 0 0 11.438 48h25.124a6.194 6.194 0 0 0 6.188-6.188V29.25c0-8.404-5.558-15.535-13.192-17.909ZM18.75 5.25V3.581l.773.258c2.887.962 6.067.962 8.954 0l.773-.258V5.25A5.256 5.256 0 0 1 24 10.5a5.256 5.256 0 0 1-5.25-5.25Zm21 36.563A3.191 3.191 0 0 1 36.562 45H11.439a3.191 3.191 0 0 1-3.188-3.188V29.25c0-8.685 7.065-15.75 15.75-15.75 8.685 0 15.75 7.065 15.75 15.75v12.563Z"/><path d="M24 27.75c-1.654 0-3-1.346-3-3s1.346-3 3-3 3 1.346 3 3a1.5 1.5 0 0 0 3 0 6.01 6.01 0 0 0-4.5-5.81V18a1.5 1.5 0 0 0-3 0v.94a6.01 6.01 0 0 0-4.5 5.81c0 3.308 2.692 6 6 6 1.654 0 3 1.346 3 3s-1.346 3-3 3-3-1.346-3-3a1.5 1.5 0 0 0-3 0 6.01 6.01 0 0 0 4.5 5.81v.94a1.5 1.5 0 0 0 3 0v-.94a6.01 6.01 0 0 0 4.5-5.81c0-3.308-2.692-6-6-6Z"/></g><defs><clipPath id="ga"><path d="M0 0h48v48H0z"/></clipPath></defs></symbol><symbol viewBox="0 0 48 48" id="ic-camera" xmlns="http://www.w3.org/2000/svg"><path d="M33.462 33.42v-9.731l5.61-2.323c4.509-1.868 6.658-7.056 4.79-11.566-1.868-4.509-7.056-6.658-11.565-4.79L1.674 17.695l2.535 3.785L0 23.223l3.356 8.101 5.828-2.414 2.535 3.785 13.301-5.51v6.235a5.975 5.975 0 0 0-1.773 4.25 6 6 0 0 0 5.994 5.994c1.66 0 3.165-.678 4.251-1.773H48V33.45H33.492l-.03-.03ZM4.878 27.65l-1.203-2.905 2.13-.882 1.784 2.664-2.711 1.123Zm7.895 1.565L5.92 18.98 33.373 7.608a6.046 6.046 0 0 1 7.89 3.269 6.046 6.046 0 0 1-3.268 7.89L12.773 29.215Zm15.06-3.194 2.817-1.167v6.991a5.984 5.984 0 0 0-2.817 0v-5.824Zm1.408 14.83a3.185 3.185 0 0 1-3.181-3.18 3.185 3.185 0 0 1 3.181-3.182 3.185 3.185 0 0 1 3.182 3.181 3.185 3.185 0 0 1-3.182 3.182Zm5.825-4.589h10.122v2.817H35.066a5.986 5.986 0 0 0 0-2.817Z"/></symbol><symbol viewBox="0 0 48 48" id="ic-construction" xmlns="http://www.w3.org/2000/svg"><path d="M46.594 25.406c.776 0 1.406-.63 1.406-1.406V13.5c0-.777-.63-1.406-1.406-1.406H25.406V3c0-.777-.63-1.406-1.406-1.406H9c-.777 0-1.406.63-1.406 1.406v9.094H1.406C.63 12.094 0 12.724 0 13.5V24c0 .777.63 1.406 1.406 1.406h6.188v7.688H1.406C.63 33.094 0 33.724 0 34.5V45c0 .777.63 1.406 1.406 1.406h45.188c.776 0 1.406-.63 1.406-1.406V34.5c0-.777-.63-1.406-1.406-1.406h-6.188v-7.688h6.188Zm-1.407-2.812h-12.28v-7.688h12.28v7.688Zm-15.093 0H17.906v-7.688h12.188v7.688ZM10.406 4.406h12.188v7.688H10.406V4.406ZM2.812 22.594v-7.688h12.282v7.688H2.813Zm7.594 2.812h12.188v7.688H10.406v-7.688Zm-7.594 10.5h12.282v7.688H2.813v-7.688Zm15.094 0h12.188v7.688H17.906v-7.688Zm27.282 0v7.688H32.906v-7.688h12.282Zm-7.594-2.812H25.406v-7.688h12.188v7.688Z"/></symbol><symbol viewBox="0 0 48 48" id="ic-contract" xmlns="http://www.w3.org/2000/svg"><g clip-path="url(#ja)"><path d="M16.62 9.247H8.228a1.406 1.406 0 1 0 0 2.813h8.392a1.406 1.406 0 0 0 0-2.813ZM16.62 14.873H8.228a1.406 1.406 0 1 0 0 2.813h8.392a1.406 1.406 0 0 0 0-2.813ZM16.62 20.498H8.228a1.406 1.406 0 1 0 0 2.813h8.392a1.406 1.406 0 0 0 0-2.813ZM16.62 26.123H8.228a1.406 1.406 0 1 0 0 2.813h8.392a1.406 1.406 0 0 0 0-2.813ZM16.62 31.843H8.228a1.406 1.406 0 0 0 0 2.812h8.392a1.406 1.406 0 0 0 0-2.812ZM21.343 12.06h8.393a1.406 1.406 0 1 0 0-2.813h-8.393a1.406 1.406 0 0 0 0 2.813ZM21.343 17.686h8.393a1.406 1.406 0 1 0 0-2.813h-8.393a1.406 1.406 0 0 0 0 2.813ZM26.791 21.904c0-.776-.63-1.406-1.406-1.406h-4.042a1.406 1.406 0 0 0 0 2.813h4.042c.777 0 1.406-.63 1.406-1.407ZM40.113 32.436a1.406 1.406 0 0 0-1.976.217l-3.622 4.516-2.243-1.625a1.406 1.406 0 1 0-1.65 2.278l3.327 2.41a1.402 1.402 0 0 0 1.922-.26l4.46-5.559a1.406 1.406 0 0 0-.218-1.977Z"/><path d="M43.667 28.12a11.598 11.598 0 0 0-6.735-3.385V5.663A5.67 5.67 0 0 0 31.268 0H6.695a5.67 5.67 0 0 0-5.664 5.663V38.24a5.67 5.67 0 0 0 5.664 5.664h19.764A11.576 11.576 0 0 0 35.34 48c6.44 0 11.679-5.243 11.679-11.687a11.62 11.62 0 0 0-3.352-8.194ZM3.844 38.239V5.663c0-1.571 1.279-2.85 2.851-2.85h24.573c1.572 0 2.851 1.279 2.851 2.85V24.69c-5.868.613-10.458 5.591-10.458 11.623 0 1.672.349 3.288 1.018 4.777H6.695a2.854 2.854 0 0 1-2.851-2.851Zm31.496 6.949a8.8 8.8 0 0 1-7.084-3.538 8.802 8.802 0 0 1-1.783-5.337c0-4.893 3.978-8.874 8.867-8.874l.139.001h.022a8.81 8.81 0 0 1 6.16 2.65 8.826 8.826 0 0 1 2.545 6.223c0 4.893-3.977 8.874-8.866 8.874Z"/></g><defs><clipPath id="ja"><path d="M0 0h48v48H0z"/></clipPath></defs></symbol><symbol viewBox="0 0 48 48" id="ic-hand" xmlns="http://www.w3.org/2000/svg"><g clip-path="url(#ka)"><path d="M7 44H1.5A1.5 1.5 0 0 1 0 42.5v-17A1.5 1.5 0 0 1 1.5 24c7.012 0 10.276 2.434 10.41 2.538a1.5 1.5 0 0 1 .538 1.584l-4 14.772A1.5 1.5 0 0 1 7 44Zm-4-3h2.852l3.396-12.542c-1.046-.494-3.09-1.23-6.248-1.414V41Z"/><path d="M26 48c-4.518 0-12.846-3.458-19.038-6.362a1.5 1.5 0 0 1 1.274-2.718C16.476 42.786 22.952 45 26 45c4.056 0 13.264-4.382 18.09-6.91-.556-.318-1.384-.59-2.59-.59-1.76 0-3.93.72-6.028 1.416-.682.226-1.362.452-2.036.658-1.484.458-3.236.926-4.938.926-4.214 0-9.778-2.004-10.012-2.09a1.499 1.499 0 0 1-.898-1.922 1.503 1.503 0 0 1 1.922-.898c.052.02 5.304 1.91 8.988 1.91 1.312 0 2.858-.424 4.058-.794.652-.2 1.31-.418 1.968-.636 2.324-.772 4.726-1.57 6.972-1.57 4.958 0 6.336 3.302 6.392 3.444a1.5 1.5 0 0 1-.668 1.87C46.62 40.148 32.314 48 26 48Z"/><path d="M33 39.68a1.5 1.5 0 0 1-1.5-1.5v-.9a2.51 2.51 0 0 0-2-2.45l-19.262-3.94a1.5 1.5 0 0 1 .602-2.939l19.262 3.94a5.52 5.52 0 0 1 4.398 5.39v.9A1.5 1.5 0 0 1 33 39.68ZM36 28c-.2 0-.398-.04-.586-.12C34.948 27.682 24 22.916 24 13.108V5.072a1.5 1.5 0 0 1 1.018-1.42L35.518.08c.312-.108.652-.108.964 0l10.5 3.572c.61.206 1.018.776 1.018 1.42v8.036c0 9.808-10.948 14.576-11.414 14.774A1.526 1.526 0 0 1 36 28ZM27 6.146v6.962c0 6.696 6.91 10.682 8.998 11.732C38.082 23.784 45 19.778 45 13.108V6.146l-9-3.062-9 3.062Z"/><path d="M35.5 19c-.397 0-.78-.158-1.06-.44l-4-4a1.5 1.5 0 1 1 2.122-2.122l2.778 2.778L40.3 8.6a1.499 1.499 0 1 1 2.398 1.8l-6 8c-.26.348-.659.566-1.095.596-.034.004-.068.004-.104.004Z"/></g><defs><clipPath id="ka"><path d="M0 0h48v48H0z"/></clipPath></defs></symbol><symbol viewBox="0 0 48 48" id="ic-helmet" xmlns="http://www.w3.org/2000/svg"><path d="M45.188 34.086v-4.461c0-4.63-1.494-9.031-4.318-12.727a21.497 21.497 0 0 0-9.844-7.166 4.224 4.224 0 0 0-4.213-4.013h-5.625a4.224 4.224 0 0 0-4.214 4.013 21.497 21.497 0 0 0-9.844 7.166c-2.825 3.696-4.317 8.097-4.317 12.727v4.46A4.225 4.225 0 0 0 0 38.063a4.224 4.224 0 0 0 4.219 4.22H43.78A4.223 4.223 0 0 0 48 38.061a4.225 4.225 0 0 0-2.813-3.976ZM5.624 29.625c0-5.071 2.166-9.818 5.719-13.205v4.767a1.406 1.406 0 0 0 2.812 0v-6.973a18.292 18.292 0 0 1 2.813-1.47V24a1.406 1.406 0 0 0 2.812 0V9.938c0-.776.631-1.407 1.407-1.407h5.625c.775 0 1.406.631 1.406 1.406V24a1.406 1.406 0 0 0 2.812 0V12.744c.987.411 1.927.905 2.813 1.47v6.973a1.406 1.406 0 0 0 2.812 0V16.42c3.553 3.387 5.719 8.134 5.719 13.205v4.219H5.625v-4.219Zm38.156 9.844H4.22a1.408 1.408 0 0 1 0-2.813H43.78a1.408 1.408 0 0 1 0 2.813Z"/></symbol><symbol viewBox="0 0 48 48" id="ic-house" xmlns="http://www.w3.org/2000/svg"><g clip-path="url(#ma)"><path d="M28.922 21.094c-1.957 0-3.657.891-4.922 2.58-1.266-1.689-2.965-2.58-4.922-2.58-3.655 0-6.328 3.004-6.328 6.69 0 4.766 4.619 7.76 10.335 12.659a1.402 1.402 0 0 0 1.83 0c5.723-4.905 10.335-7.895 10.335-12.659 0-3.683-2.67-6.69-6.328-6.69ZM24 37.529c-5.15-4.351-8.438-6.697-8.438-9.745 0-2.21 1.512-3.878 3.516-3.878 2.606 0 3.529 3.06 3.57 3.198a1.407 1.407 0 0 0 2.706-.006c.009-.032.924-3.192 3.568-3.192 2.004 0 3.515 1.667 3.515 3.878 0 3.05-3.291 5.398-8.437 9.745Z"/><path d="M46.593 45.188h-4.218V23.345l.024.017a1.406 1.406 0 0 0 1.944-.299l3.376-4.499a1.41 1.41 0 0 0-.302-1.984L24.83.272a1.406 1.406 0 0 0-1.656-.003l-9.111 6.579V4.22c0-.777-.63-1.407-1.407-1.407H7.031c-.776 0-1.406.63-1.406 1.407v8.72L.583 16.58a1.406 1.406 0 0 0-.301 1.984l3.375 4.499a1.406 1.406 0 0 0 1.944.299l.024-.017v21.843H1.406a1.406 1.406 0 1 0 0 2.813h45.187a1.406 1.406 0 0 0 0-2.813ZM8.437 5.626h2.813v3.253l-2.813 2.03V5.626ZM5.082 20.274l-1.69-2.252L24 3.142l20.61 14.88-1.69 2.252L24.822 7.298a1.406 1.406 0 0 0-1.645 0c-.319.23-17.694 12.688-18.096 12.976Zm3.356 1.054C18.767 13.92 22.587 11.183 24 10.168c1.91 1.37 7.12 5.107 15.563 11.16v23.86H8.436v-23.86Z"/></g><defs><clipPath id="ma"><path d="M0 0h48v48H0z"/></clipPath></defs></symbol><symbol viewBox="0 0 48 48" id="ic-like" xmlns="http://www.w3.org/2000/svg"><path d="M44.017 29.719a4.204 4.204 0 0 0 1.077-2.813 4.224 4.224 0 0 0-4.219-4.218h-8.188c.81-2.461 1.157-5.727 1.157-7.126v-1.406a5.632 5.632 0 0 0-5.625-5.625h-1.407c-.645 0-1.207.439-1.364 1.065l-.765 3.065c-1.074 4.292-4.482 9.027-8.009 9.888a4.225 4.225 0 0 0-3.924-2.674H4.312c-.776 0-1.406.63-1.406 1.406v25.313c0 .776.63 1.406 1.406 1.406h8.438a4.223 4.223 0 0 0 3.808-2.405l4.832 1.61c1.58.528 3.226.795 4.892.795h11.78a4.224 4.224 0 0 0 3.923-5.773 4.227 4.227 0 0 0 3.109-4.07 4.203 4.203 0 0 0-1.077-2.813 4.204 4.204 0 0 0 1.077-2.813 4.203 4.203 0 0 0-1.077-2.812ZM14.157 43.78c0 .776-.632 1.407-1.407 1.407H5.719v-22.5h7.031c.775 0 1.406.63 1.406 1.406V43.78Zm23.905-12.656h2.813c.775 0 1.406.63 1.406 1.406 0 .776-.63 1.407-1.406 1.407h-2.813a1.407 1.407 0 0 0 0 2.812h2.813c.775 0 1.406.63 1.406 1.406 0 .776-.63 1.407-1.406 1.407h-2.813a1.407 1.407 0 0 0 0 2.812c.776 0 1.407.63 1.407 1.406 0 .776-.631 1.407-1.407 1.407h-11.78c-1.363 0-2.71-.219-4.003-.65l-5.31-1.77V25.367c2.206-.42 4.365-1.816 6.314-4.103 1.903-2.233 3.446-5.193 4.128-7.92l.5-2h.308a2.816 2.816 0 0 1 2.812 2.812v1.406c0 1.888-.59 5.51-1.346 7.126h-2.872a1.407 1.407 0 0 0 0 2.812h14.062c.775 0 1.406.63 1.406 1.406 0 .776-.63 1.407-1.406 1.407h-2.813a1.407 1.407 0 0 0 0 2.812Z"/><path d="M9.938 42.375a1.406 1.406 0 1 0 0-2.813 1.406 1.406 0 0 0 0 2.813ZM29.625 0c-.777 0-1.406.63-1.406 1.406v2.907a1.406 1.406 0 0 0 2.812 0V1.405C31.031.63 30.401 0 29.625 0ZM23.659 6.201 21.67 4.213A1.406 1.406 0 1 0 19.681 6.2l1.99 1.99a1.406 1.406 0 0 0 1.988-1.99ZM39.569 4.213c-.55-.55-1.44-.55-1.989 0L35.592 6.2a1.406 1.406 0 1 0 1.988 1.99L39.57 6.2c.55-.549.55-1.44 0-1.988Z"/></symbol><symbol viewBox="0 0 48 48" id="ic-painting" xmlns="http://www.w3.org/2000/svg"><path d="M39.563 4.219A4.224 4.224 0 0 0 35.343 0H7.22A4.224 4.224 0 0 0 3 4.219v8.437a4.224 4.224 0 0 0 4.219 4.219h28.125a4.224 4.224 0 0 0 4.218-4.219V11.25h1.407c.775 0 1.406.631 1.406 1.406v5.625c0 .776-.631 1.407-1.406 1.407H24.094a4.224 4.224 0 0 0-4.219 4.218v4.219h-1.406c-.777 0-1.407.63-1.407 1.406v5.549l-1.406 5.715C14.742 44.453 17.506 48 21.281 48c3.778 0 6.539-3.55 5.627-7.2L25.5 35.08V29.53c0-.776-.63-1.406-1.406-1.406h-1.407v-4.219c0-.775.631-1.406 1.407-1.406h16.875a4.224 4.224 0 0 0 4.218-4.219v-5.625a4.224 4.224 0 0 0-4.218-4.219h-1.407V4.22ZM22.686 30.937v2.907h-2.812v-2.907h2.813Zm-1.406 14.25a2.985 2.985 0 0 1-2.895-3.714l1.185-4.817h3.42l1.187 4.822a2.985 2.985 0 0 1-2.897 3.71ZM7.22 2.813h28.125c.775 0 1.406.63 1.406 1.406v1.406h-4.219c-1.366 0-3.114.512-5.138 1.104-2.733.801-5.83 1.708-8.924 1.708-3.016 0-5.142-.88-7.017-1.657-1.434-.594-2.789-1.155-4.233-1.155H5.812V4.219c0-.776.631-1.407 1.407-1.407Zm29.531 9.843c0 .775-.631 1.406-1.406 1.406H7.219a1.408 1.408 0 0 1-1.407-1.406V8.437H7.22c.885 0 1.888.416 3.157.941 2.013.834 4.518 1.872 8.093 1.872 3.497 0 6.944-1.01 9.715-1.821 1.74-.51 3.384-.992 4.347-.992h4.219v4.22Z"/></symbol><symbol viewBox="0 0 48 48" id="ic-pantone" xmlns="http://www.w3.org/2000/svg"><g clip-path="url(#pa)"><path d="M9.938 33.844a4.224 4.224 0 0 0-4.22 4.218 4.224 4.224 0 0 0 4.22 4.22 4.223 4.223 0 0 0 4.218-4.22 4.223 4.223 0 0 0-4.219-4.218Zm0 5.625a1.408 1.408 0 0 1 0-2.813c.775 0 1.406.631 1.406 1.407 0 .775-.631 1.406-1.406 1.406Z"/><path d="M45.462 28.569a4.22 4.22 0 0 0 .264-4.62l-5.623-9.831c-.972-1.684-3.023-2.453-4.852-1.964a4.227 4.227 0 0 0-2.009-4.573L23.5 1.957a4.222 4.222 0 0 0-4.334.07A4.22 4.22 0 0 0 15.562 0H4.22A4.224 4.224 0 0 0 0 4.219V43.78A4.224 4.224 0 0 0 4.219 48H43.78A4.224 4.224 0 0 0 48 43.781V32.438a4.224 4.224 0 0 0-2.538-3.869ZM16.969 43.781c0 .776-.631 1.407-1.407 1.407H4.22c-.776 0-1.407-.631-1.407-1.407v-12.75H16.97v12.75Zm0-15.562H2.812V16.875H16.97v11.344Zm0-14.157H2.812V4.22c0-.776.631-1.407 1.407-1.407h11.343c.776 0 1.407.631 1.407 1.407v9.843Zm2.812-8.477.391-.678a1.408 1.408 0 0 1 1.922-.515l9.742 5.625c.672.388.903 1.25.514 1.923l-1.625 2.825c-.04.06-.077.122-.108.187L19.78 33.787V5.584Zm0 33.842 13.146-22.85 2.718-1.57c.69-.397 1.634-.156 2.02.512l5.622 9.832a1.411 1.411 0 0 1-.518 1.93c-1.005.58-21.999 12.735-22.988 13.308v-1.162Zm25.407 4.354c0 .776-.631 1.407-1.407 1.407H19.54c.15-.423.234-.877.24-1.349l22.124-12.808h1.878c.776 0 1.407.631 1.407 1.407V43.78Z"/></g><defs><clipPath id="pa"><path d="M0 0h48v48H0z"/></clipPath></defs></symbol><symbol viewBox="0 0 48 48" id="ic-plan" xmlns="http://www.w3.org/2000/svg"><path d="M42.375 2.906a5.628 5.628 0 0 0-4.87 2.813H1.406C.63 5.719 0 6.349 0 7.125v36.563c0 .776.63 1.406 1.406 1.406h40.969A5.631 5.631 0 0 0 48 39.469V8.53a5.631 5.631 0 0 0-5.625-5.625Zm0 39.375H2.812V8.531H36.75V39.47a1.406 1.406 0 0 0 2.813 0 2.816 2.816 0 0 1 2.812-2.813 2.816 2.816 0 0 1 2.813 2.813 2.816 2.816 0 0 1-2.813 2.812Zm2.813-7.682a5.591 5.591 0 0 0-2.813-.755 5.591 5.591 0 0 0-2.813.755V8.53a2.816 2.816 0 0 1 2.813-2.812 2.816 2.816 0 0 1 2.813 2.812V34.6Z"/><path d="M32.438 11.344H7.125c-.777 0-1.406.63-1.406 1.406v25.313c0 .776.63 1.406 1.406 1.406h14.063a1.406 1.406 0 0 0 1.406-1.407V35.25a4.226 4.226 0 0 1 2.812-3.978v6.79c0 .777.63 1.407 1.407 1.407h5.625c.776 0 1.406-.63 1.406-1.407V12.75c0-.777-.63-1.406-1.407-1.406ZM31.03 36.656H28.22v-7.031c0-.777-.63-1.406-1.407-1.406a7.04 7.04 0 0 0-7.03 7.031v1.406H8.531V28.22h5.624v4.218a1.406 1.406 0 0 0 2.813 0v-5.624c0-.777-.63-1.407-1.407-1.407h-7.03v-11.25h8.437v5.625H12.75a1.406 1.406 0 0 0 0 2.813H24a1.406 1.406 0 0 0 0-2.813h-4.219v-5.625h11.25v22.5Z"/></symbol><symbol viewBox="0 0 48 48" id="ic-slippers" xmlns="http://www.w3.org/2000/svg"><g clip-path="url(#ra)"><path d="M38.054 2.089c-6.17-.648-11.716 3.843-12.365 10.013l-1.127 10.722a1.406 1.406 0 0 0 1.252 1.545l.466.05-1.176 11.188c-.54 5.14 3.203 9.763 8.344 10.303 5.14.54 9.763-3.202 10.303-8.343l1.176-11.189.467.05a1.406 1.406 0 0 0 1.545-1.253l1.127-10.722c.648-6.169-3.843-11.716-10.012-12.364Zm-.294 2.797c4.627.486 7.995 4.646 7.509 9.273l-.392 3.73-16.783-1.764.392-3.73c.487-4.627 4.647-7.995 9.274-7.509ZM27.506 21.72l.294-2.797 16.783 1.764-.294 2.797-16.783-1.764Zm13.448 15.553a6.57 6.57 0 0 1-7.212 5.841 6.57 6.57 0 0 1-5.84-7.212l1.175-11.189 13.053 1.372-1.176 11.189Z"/><path d="m32.171 40.12 3.73.392a1.406 1.406 0 1 0 .293-2.797l-3.729-.392a1.406 1.406 0 0 0-.294 2.797ZM9.947 2.089C3.777 2.737-.713 8.284-.065 14.453l1.127 10.722a1.406 1.406 0 0 0 1.545 1.252l.466-.05 1.176 11.19c.54 5.14 5.163 8.883 10.304 8.343 5.141-.54 8.884-5.163 8.344-10.304L21.72 24.418l.466-.05a1.406 1.406 0 0 0 1.251-1.545l-1.127-10.722c-.648-6.17-6.195-10.66-12.364-10.012ZM3.712 23.483l-.294-2.797L20.2 18.922l.294 2.797-16.782 1.764ZM20.099 35.9a6.57 6.57 0 0 1-5.84 7.213 6.57 6.57 0 0 1-7.213-5.84L5.87 26.082l13.054-1.371L20.099 35.9Zm-.193-19.775L3.124 17.889l-.392-3.73c-.486-4.627 2.882-8.787 7.51-9.273 4.626-.487 8.786 2.882 9.272 7.51l.392 3.729Z"/><path d="m12.1 40.511 3.73-.392a1.406 1.406 0 1 0-.295-2.797l-3.73.392a1.406 1.406 0 0 0 .295 2.797Z"/></g><defs><clipPath id="ra"><path d="M0 0h48v48H0z"/></clipPath></defs></symbol><symbol viewBox="0 0 48 48" id="ic-success" xmlns="http://www.w3.org/2000/svg"><g clip-path="url(#sa)"><path d="M42.827 15.062h-6.125v-4.718H46.594a1.406 1.406 0 0 0 .95-2.443l-2.729-2.73 2.772-2.77A1.406 1.406 0 0 0 46.592 0H35.295c-.776 0-1.406.63-1.406 1.406v13.656h-1.606a5.178 5.178 0 0 0-5.172 5.172v2.93a5.14 5.14 0 0 0-2.359-.571h-1.506a5.177 5.177 0 0 0-5.172 5.172v2.93a5.143 5.143 0 0 0-2.36-.57H14.21a5.177 5.177 0 0 0-5.172 5.17v2.932a5.135 5.135 0 0 0-2.36-.572H5.173A5.177 5.177 0 0 0 0 42.827v3.765c0 .777.63 1.406 1.406 1.406h45.186c.777 0 1.406-.63 1.406-1.406V20.234a5.178 5.178 0 0 0-5.171-5.172Zm-6.125-12.25h6.495l-1.365 1.365a1.405 1.405 0 0 0 0 1.99l1.365 1.364h-6.495V2.812ZM2.812 42.826c0-1.3 1.059-2.359 2.36-2.359h1.506c1.3 0 2.359 1.059 2.359 2.36v2.359H2.812v-2.36Zm9.038 0v-7.53a2.362 2.362 0 0 1 2.359-2.36h1.506c1.3 0 2.359 1.059 2.359 2.36v9.89h-6.225v-2.36Zm9.036-7.53v-7.531c0-1.301 1.06-2.36 2.36-2.36h1.506c1.3 0 2.36 1.059 2.36 2.36v17.42h-6.226v-9.89Zm24.3 9.89H29.924V20.234a2.362 2.362 0 0 1 2.359-2.36h10.544c1.3 0 2.359 1.059 2.359 2.36v24.952Z"/></g><defs><clipPath id="sa"><path d="M0 0h48v48H0z"/></clipPath></defs></symbol><symbol viewBox="0 0 40 40" id="iphone" xmlns="http://www.w3.org/2000/svg"><path fill-rule="evenodd" clip-rule="evenodd" d="M14.166 4.87a2.5 2.5 0 0 0-2.5 2.5v25.26a2.5 2.5 0 0 0 2.5 2.5h11.667a2.5 2.5 0 0 0 2.5-2.5V7.37a2.5 2.5 0 0 0-2.5-2.5h-.139l-.406.974a1.667 1.667 0 0 1-1.538 1.025h-7.5c-.673 0-1.28-.404-1.539-1.025l-.406-.975h-.139Zm-5.833 2.5a5.833 5.833 0 0 1 5.833-5.834h11.667a5.833 5.833 0 0 1 5.833 5.833v25.26a5.833 5.833 0 0 1-5.833 5.834H14.166a5.833 5.833 0 0 1-5.833-5.833V7.37Z"/></symbol><symbol viewBox="0 0 32 32" id="messanger" xmlns="http://www.w3.org/2000/svg"><path d="M16 2.666c-7.364 0-13.334 5.527-13.334 12.345 0 3.885 1.938 7.35 4.968 9.613v4.709l4.54-2.492a14.34 14.34 0 0 0 3.825.517c7.364 0 13.334-5.527 13.334-12.345 0-6.819-5.97-12.347-13.334-12.347Zm1.324 16.625-3.395-3.622-6.625 3.622 7.289-7.737 3.478 3.622 6.542-3.622-7.289 7.737Z"/></symbol><symbol viewBox="0 0 32 32" id="twitter" xmlns="http://www.w3.org/2000/svg"><path d="M30 7.696a11.87 11.87 0 0 1-3.298.866 5.573 5.573 0 0 0 2.525-3.04 11.897 11.897 0 0 1-3.65 1.334 5.849 5.849 0 0 0-4.193-1.737c-3.172 0-5.744 2.463-5.744 5.499 0 .43.051.85.15 1.253-4.774-.23-9.006-2.42-11.84-5.747a5.282 5.282 0 0 0-.776 2.765c0 1.908 1.015 3.592 2.555 4.577a5.94 5.94 0 0 1-2.602-.69v.068c0 2.664 1.98 4.887 4.607 5.393a6.06 6.06 0 0 1-1.514.193c-.37 0-.73-.035-1.081-.102.731 2.186 2.852 3.776 5.364 3.82-1.964 1.474-4.442 2.35-7.133 2.35-.464 0-.92-.027-1.37-.076a16.763 16.763 0 0 0 8.804 2.475c10.567 0 16.342-8.38 16.342-15.648l-.019-.712A11.215 11.215 0 0 0 30 7.696Z"/></symbol><symbol viewBox="0 0 24 24" id="up-chevron" xmlns="http://www.w3.org/2000/svg"><path fill-rule="evenodd" clip-rule="evenodd" d="M4.293 15.707a1 1 0 0 1 0-1.414l7-7a1 1 0 0 1 1.414 0l7 7a1 1 0 0 1-1.414 1.414L12 9.414l-6.293 6.293a1 1 0 0 1-1.414 0Z"/></symbol><symbol viewBox="0 0 32 32" id="whatsapp" xmlns="http://www.w3.org/2000/svg"><path d="M29.333 15.656c0 7.174-5.86 12.99-13.091 12.99-2.296 0-4.452-.587-6.328-1.616l-7.248 2.303 2.363-6.97a12.853 12.853 0 0 1-1.879-6.707c0-7.174 5.861-12.99 13.092-12.99 7.23 0 13.09 5.816 13.09 12.99ZM16.242 4.735c-6.07 0-11.007 4.899-11.007 10.92 0 2.39.78 4.604 2.097 6.404l-1.375 4.056 4.23-1.344a11 11 0 0 0 6.055 1.806c6.069 0 11.006-4.899 11.006-10.92 0-6.022-4.937-10.922-11.006-10.922Zm6.61 13.913c-.08-.133-.294-.213-.615-.372-.32-.159-1.899-.93-2.192-1.035-.295-.107-.51-.16-.723.159-.213.319-.828 1.035-1.016 1.248-.187.213-.374.24-.695.08-.321-.16-1.355-.496-2.58-1.58-.954-.844-1.599-1.886-1.786-2.205-.187-.319-.02-.49.141-.65.145-.142.321-.371.482-.557.16-.186.214-.318.32-.531.108-.213.054-.398-.027-.558-.08-.16-.722-1.726-.99-2.364-.266-.637-.533-.53-.721-.53-.187 0-.401-.027-.615-.027-.214 0-.562.08-.856.398-.294.319-1.123 1.09-1.123 2.656 0 1.567 1.15 3.08 1.31 3.293.16.212 2.22 3.531 5.482 4.806s3.262.85 3.85.796c.589-.053 1.899-.77 2.167-1.513.267-.744.267-1.382.187-1.514Z"/></symbol><symbol viewBox="0 0 32 32" id="youtube" xmlns="http://www.w3.org/2000/svg"><path fill-rule="evenodd" clip-rule="evenodd" d="M28.52 5.486a4.01 4.01 0 0 1 2.82 2.82c.686 2.505.66 7.724.66 7.724s0 5.192-.66 7.697a4.01 4.01 0 0 1-2.82 2.82c-2.504.659-12.52.659-12.52.659s-9.99 0-12.52-.685A4.01 4.01 0 0 1 .658 23.7C0 21.221 0 16.002 0 16.002s0-5.193.659-7.696c.369-1.371 1.476-2.478 2.82-2.847C5.983 4.8 16 4.8 16 4.8s10.017 0 12.521.686Zm-7.38 10.517-8.33 4.798v-9.595l8.33 4.797Z"/></symbol></svg>